<svg id="inbox" xmlns="http://www.w3.org/2000/svg" width="172.898" height="172.898" viewBox="0 0 172.898 172.898">
  <g id="Gruppe_171" data-name="Gruppe 171" transform="translate(0 13.508)">
    <g id="Gruppe_170" data-name="Gruppe 170">
      <path id="Pfad_1339" data-name="Pfad 1339" d="M0,127.8,20.7,43.853A5.064,5.064,0,0,1,25.617,40h121.66a5.064,5.064,0,0,1,4.917,3.853L172.9,127.8a5.4,5.4,0,0,1-5.4,5.4H5.4A5.4,5.4,0,0,1,0,127.8Z" transform="translate(0 -40)" fill="#ffb454"/>
    </g>
  </g>
  <g id="Gruppe_172" data-name="Gruppe 172" transform="translate(86.449 13.508)">
    <path id="Pfad_1340" data-name="Pfad 1340" d="M321.748,43.853A5.064,5.064,0,0,0,316.832,40H256v93.2h81.046a5.4,5.4,0,0,0,5.4-5.4Z" transform="translate(-256 -40)" fill="#ff7d47"/>
  </g>
  <g id="Gruppe_184" data-name="Gruppe 184">
    <g id="Gruppe_179" data-name="Gruppe 179" transform="translate(27.353)">
      <g id="Gruppe_173" data-name="Gruppe 173" transform="translate(20.261)">
        <path id="Pfad_1341" data-name="Pfad 1341" d="M213.6,43.9H146.065A5.067,5.067,0,0,1,141,38.834V5.065A5.067,5.067,0,0,1,146.065,0H213.6a5.067,5.067,0,0,1,5.065,5.065V38.834A5.067,5.067,0,0,1,213.6,43.9Z" transform="translate(-141)" fill="#fff5f5"/>
      </g>
      <g id="Gruppe_174" data-name="Gruppe 174" transform="translate(59.096)">
        <path id="Pfad_1342" data-name="Pfad 1342" d="M289.769,0H256V43.9h33.769a5.067,5.067,0,0,0,5.065-5.065V5.065A5.067,5.067,0,0,0,289.769,0Z" transform="translate(-256)" fill="#e2dff4"/>
      </g>
      <g id="Gruppe_175" data-name="Gruppe 175" transform="translate(10.131 33.769)">
        <path id="Pfad_1343" data-name="Pfad 1343" d="M203.865,143.9h-87.8A5.067,5.067,0,0,1,111,138.834V105.065A5.067,5.067,0,0,1,116.065,100h87.8a5.067,5.067,0,0,1,5.065,5.065v33.769A5.067,5.067,0,0,1,203.865,143.9Z" transform="translate(-111 -100)" fill="#e2dff4"/>
      </g>
      <g id="Gruppe_176" data-name="Gruppe 176" transform="translate(59.096 33.769)">
        <path id="Pfad_1344" data-name="Pfad 1344" d="M299.9,100H256v43.9h43.9a5.067,5.067,0,0,0,5.065-5.065V105.065A5.067,5.067,0,0,0,299.9,100Z" transform="translate(-256 -100)" fill="#d5d3ea"/>
      </g>
      <g id="Gruppe_177" data-name="Gruppe 177" transform="translate(0 67.538)">
        <path id="Pfad_1345" data-name="Pfad 1345" d="M194.126,284.423H86.065A5.067,5.067,0,0,1,81,279.357V205.065A5.067,5.067,0,0,1,86.065,200H194.126a5.067,5.067,0,0,1,5.065,5.065v74.292A5.067,5.067,0,0,1,194.126,284.423Z" transform="translate(-81 -200)" fill="#fff5f5"/>
      </g>
      <g id="Gruppe_178" data-name="Gruppe 178" transform="translate(59.096 67.538)">
        <path id="Pfad_1346" data-name="Pfad 1346" d="M310.031,200H256v84.423h54.031a5.067,5.067,0,0,0,5.065-5.065V205.065A5.067,5.067,0,0,0,310.031,200Z" transform="translate(-256 -200)" fill="#e2dff4"/>
      </g>
    </g>
    <g id="Gruppe_180" data-name="Gruppe 180" transform="translate(0 101.307)">
      <path id="Pfad_1347" data-name="Pfad 1347" d="M167.832,371.59H5.065A5.067,5.067,0,0,1,0,366.525V300H56.057a5.062,5.062,0,0,1,4.805,3.465l5.6,16.8h39.976l5.6-16.8A5.062,5.062,0,0,1,116.841,300H172.9v66.525A5.067,5.067,0,0,1,167.832,371.59Z" transform="translate(0 -300)" fill="#ffe278"/>
    </g>
    <g id="Gruppe_181" data-name="Gruppe 181" transform="translate(86.449 101.307)">
      <path id="Pfad_1348" data-name="Pfad 1348" d="M342.449,300H286.392a5.062,5.062,0,0,0-4.805,3.465l-5.6,16.8H256V371.59h81.383a5.067,5.067,0,0,0,5.065-5.065Z" transform="translate(-256 -300)" fill="#ffb454"/>
    </g>
    <g id="Gruppe_182" data-name="Gruppe 182" transform="translate(57.745 141.83)">
      <path id="Pfad_1349" data-name="Pfad 1349" d="M223.342,430.131H176.065a5.065,5.065,0,0,1,0-10.131h47.277a5.065,5.065,0,0,1,0,10.131Z" transform="translate(-171 -420)" fill="#ffb454"/>
    </g>
    <g id="Gruppe_183" data-name="Gruppe 183" transform="translate(86.449 141.83)">
      <path id="Pfad_1350" data-name="Pfad 1350" d="M279.638,420H256v10.131h23.638a5.065,5.065,0,0,0,0-10.131Z" transform="translate(-256 -420)" fill="#ff7d47"/>
    </g>
  </g>
</svg>
