<svg xmlns="http://www.w3.org/2000/svg" xmlns:xlink="http://www.w3.org/1999/xlink" width="36" height="38" viewBox="0 0 36 38">
  <defs>
    <filter id="daterange_baseline" x="0" y="0" width="36" height="38" filterUnits="userSpaceOnUse">
      <feOffset dx="3" dy="3" input="SourceAlpha"/>
      <feGaussianBlur stdDeviation="3" result="blur"/>
      <feFlood flood-opacity="0.161"/>
      <feComposite operator="in" in2="blur"/>
      <feComposite in="SourceGraphic"/>
    </filter>
  </defs>
  <g transform="matrix(1, 0, 0, 1, 0, 0)" filter="url(#daterange_baseline)">
    <path id="daterange_baseline-2" data-name="daterange_baseline" d="M10.5,12h-2v2h2Zm4,0h-2v2h2Zm4,0h-2v2h2Zm2-7h-1V3h-2V5h-8V3h-2V5h-1A1.991,1.991,0,0,0,4.51,7L4.5,21a2,2,0,0,0,2,2h14a2.006,2.006,0,0,0,2-2V7A2.006,2.006,0,0,0,20.5,5Zm0,16H6.5V10h14Z" transform="translate(1.5 3)" fill="#262526" opacity="0.5"/>
  </g>
</svg>
