<svg xmlns="http://www.w3.org/2000/svg" xmlns:xlink="http://www.w3.org/1999/xlink" width="33.238" height="38" viewBox="0 0 33.238 38">
  <defs>
    <filter id="lock_baseline" x="0" y="0" width="33.238" height="38" filterUnits="userSpaceOnUse">
      <feOffset dx="3" dy="3" input="SourceAlpha"/>
      <feGaussianBlur stdDeviation="3" result="blur"/>
      <feFlood flood-opacity="0.161"/>
      <feComposite operator="in" in2="blur"/>
      <feComposite in="SourceGraphic"/>
    </filter>
  </defs>
  <g transform="matrix(1, 0, 0, 1, 0, 0)" filter="url(#lock_baseline)">
    <path id="lock_baseline-2" data-name="lock_baseline" d="M19.333,8.167h-.952v-1.9a4.762,4.762,0,1,0-9.524,0v1.9H7.9a1.91,1.91,0,0,0-1.9,1.9V19.6a1.91,1.91,0,0,0,1.9,1.9H19.333a1.91,1.91,0,0,0,1.9-1.9V10.071A1.91,1.91,0,0,0,19.333,8.167Zm-5.714,8.571a1.9,1.9,0,1,1,1.9-1.9A1.91,1.91,0,0,1,13.619,16.738Zm2.952-8.571h-5.9v-1.9a2.952,2.952,0,0,1,5.9,0Z" transform="translate(0 4.5)" fill="#262526" opacity="0.5"/>
  </g>
</svg>
