<svg xmlns="http://www.w3.org/2000/svg" width="109.166" height="117.197" viewBox="0 0 109.166 117.197">
  <g id="Gruppe_207" data-name="Gruppe 207" transform="translate(-907.478 221.133)">
    <g id="Gruppe_18" data-name="Gruppe 18">
      <line id="Linie_138" data-name="Linie 138" x1="9.687" y2="2.076" transform="translate(934.472 -180.17)" fill="none" stroke="#4b4b5c" stroke-linecap="round" stroke-width="5"/>
      <path id="Pfad_134" data-name="Pfad 134" d="M3.013,18.637l-.944-5.683" transform="translate(943.868 -136.854)" fill="none" stroke="#4b4b5c" stroke-linecap="round" stroke-width="5"/>
      <line id="Linie_136" data-name="Linie 136" x2="55.814" transform="translate(935.856 -116.514)" fill="none" stroke="#4b4b5c" stroke-linecap="round" stroke-width="5"/>
      <path id="Pfad_122" data-name="Pfad 122" d="M.274,9.426-1.4.81" transform="translate(939.868 -170.213)" fill="none" stroke="#4b4b5c" stroke-linecap="round" stroke-width="5"/>
      <line id="Linie_137" data-name="Linie 137" x1="4.028" y1="8.595" transform="translate(934.472 -178.095)" fill="none" stroke="#4b4b5c" stroke-linecap="round" stroke-width="5"/>
      <line id="Linie_139" data-name="Linie 139" x1="49.126" transform="translate(944.159 -180.17)" fill="none" stroke="#4b4b5c" stroke-linecap="round" stroke-width="5"/>
      <line id="Linie_140" data-name="Linie 140" x2="5.997" y2="36.671" transform="translate(993.284 -180.17)" fill="none" stroke="#4b4b5c" stroke-linecap="round" stroke-width="5"/>
      <line id="Linie_141" data-name="Linie 141" x2="7.611" y2="2.076" transform="translate(993.284 -180.17)" fill="none" stroke="#4b4b5c" stroke-linecap="round" stroke-width="5"/>
      <line id="Linie_142" data-name="Linie 142" x1="2.076" y1="34.596" transform="translate(1000.896 -178.095)" fill="none" stroke="#4b4b5c" stroke-linecap="round" stroke-width="5"/>
      <line id="Linie_143" data-name="Linie 143" y1="0.316" x2="13.874" transform="translate(959.5 -123.816)" fill="none" stroke="#4b4b5c" stroke-linecap="round" stroke-width="5"/>
      <path id="Pfad_123" data-name="Pfad 123" d="M83.535-29.344s1.13,16.822-11.152,16.822S60.476-29.344,60.476-29.344" transform="translate(896.709 -140.296)" fill="none" stroke="#4b4b5c" stroke-linecap="round" stroke-width="5"/>
      <path id="Pfad_124" data-name="Pfad 124" d="M.013,12.035s-.28-1.058,1.715-3.379,4.7-3.74,6.265-5.9S7.994,0,7.994,0" transform="translate(982.937 -193.316) rotate(1)" fill="none" stroke="#4b4b5c" stroke-linecap="round" stroke-width="5"/>
      <line id="Linie_144" data-name="Linie 144" x2="7.611" y2="2.076" transform="translate(991.025 -193.364) rotate(1)" fill="none" stroke="#4b4b5c" stroke-linecap="round" stroke-width="5"/>
      <path id="Pfad_125" data-name="Pfad 125" d="M.013,12.035s-.28-1.058,1.715-3.379,4.7-3.74,6.265-5.9S7.994,0,7.994,0" transform="translate(982.937 -193.316) rotate(1)" fill="none" stroke="#4b4b5c" stroke-linecap="round" stroke-width="5"/>
      <path id="Pfad_126" data-name="Pfad 126" d="M9.121,8.712s.294-.747-1.8-2.385S2.4,3.687.759,2.159.648,0,.648,0" transform="translate(997.857 -191.667) rotate(48)" fill="none" stroke="#4b4b5c" stroke-linecap="round" stroke-width="5"/>
      <line id="Linie_145" data-name="Linie 145" x2="3.377" y2="0.038" transform="translate(993.599 -185.876) rotate(14)" fill="none" stroke="#4b4b5c" stroke-linecap="round" stroke-width="2"/>
      <line id="Linie_146" data-name="Linie 146" x1="13.608" y2="8.995" transform="translate(966.761 -189.165)" fill="none" stroke="#4b4b5c" stroke-linecap="round" stroke-width="5"/>
      <line id="Linie_147" data-name="Linie 147" x2="3.46" y2="3.69" transform="translate(980.369 -189.165)" fill="none" stroke="#4b4b5c" stroke-linecap="round" stroke-width="5"/>
      <path id="Pfad_127" data-name="Pfad 127" d="M45.14,27.733,51.1,36.94c-.011-.019-11.633-18.468-15.578-21.275-1.48-1.052-2.333,5.307-3.193,4.063-3-4.335,2.1-6.425.541-8.952-3.162-5.141-6.056-10-8.583-11.255-2.947-1.466-10.24-1.864-11.629,2.034S17.3,13,18.727,15.112C25.5,25.137,35.521,38.77,35.521,38.77" transform="translate(908.235 -217.095)" fill="none" stroke="#4b4b5c" stroke-linecap="round" stroke-width="5"/>
      <path id="Pfad_128" data-name="Pfad 128" d="M18.888,21.139s-2.309-1.929-4.361-1.088-3.081,2.428-2.6,4.332c1.44,5.66,2.515,14.157,4.8,18.877a4.831,4.831,0,0,0,2.629,2.211" transform="translate(972.942 -162.178)" fill="none" stroke="#4b4b5c" stroke-linecap="round" stroke-width="5"/>
      <path id="Pfad_129" data-name="Pfad 129" d="M13.331,10.693s-1.719-7.4-4.938-9.537S3.895.182,1.8,1.9.016,8.016.016,8.016" transform="translate(992.734 -145.361) rotate(14)" fill="none" stroke="#4b4b5c" stroke-linecap="round" stroke-width="5"/>
      <path id="Pfad_130" data-name="Pfad 130" d="M0,0C.684.824.595,3.909,2.019,5.771A4.484,4.484,0,0,0,5.7,7.449" transform="matrix(-0.978, 0.208, -0.208, -0.978, 995.223, -144.144)" fill="none" stroke="#4b4b5c" stroke-linecap="round" stroke-width="5"/>
      <path id="Pfad_131" data-name="Pfad 131" d="M0,29.925s4.222-.356,6.451-1.609,1.954-5.046,2.874-5.084c1.9-.079-2.542,4.655-1.314,4.7s6.083-1.788,6.227-4.535c.294-5.617-1.834-20.529-4.41-22.236C6.609-.977,5.33.182,3.236,1.9s-1.4,1.253-1.4,1.253" transform="translate(999.763 -145.708) rotate(14)" fill="none" stroke="#4b4b5c" stroke-linecap="round" stroke-width="5"/>
      <path id="Pfad_132" data-name="Pfad 132" d="M0,0C.837,1.528,3.322,6.8,5.354,9.051s4.011.925,4.011.925" transform="translate(993.115 -129.186) rotate(22)" fill="none" stroke="#4b4b5c" stroke-linecap="round" stroke-width="5"/>
      <line id="Linie_148" data-name="Linie 148" x2="7.611" y2="2.076" transform="translate(993.284 -180.17)" fill="none" stroke="#4b4b5c" stroke-linecap="round" stroke-width="5"/>
      <line id="Linie_149" data-name="Linie 149" x1="49.126" transform="translate(944.159 -180.17)" fill="none" stroke="#4b4b5c" stroke-linecap="round" stroke-width="5"/>
      <line id="Linie_150" data-name="Linie 150" x1="9.687" y2="2.076" transform="translate(934.472 -180.17)" fill="none" stroke="#4b4b5c" stroke-linecap="round" stroke-width="5"/>
      <path id="Pfad_133" data-name="Pfad 133" d="M0,14.983V0" transform="translate(944.159 -177.17)" fill="none" stroke="#4b4b5c" stroke-linecap="round" stroke-width="5"/>
      <path id="Pfad_135" data-name="Pfad 135" d="M3.7,32.726-3.689-.085" transform="translate(943.647 -157.241) rotate(3)" fill="none" stroke="#4b4b5c" stroke-linecap="round" stroke-width="9"/>
    </g>
    <g id="Gruppe_14" data-name="Gruppe 14" transform="translate(208.443 -761.838) rotate(45)">
      <line id="Linie_151" data-name="Linie 151" y1="20" transform="translate(959.5 -56.086)" fill="none" stroke="#f27649" stroke-linecap="round" stroke-width="7"/>
      <line id="Linie_152" data-name="Linie 152" y1="12" transform="translate(959.5 -61.5)" fill="none" stroke="#f27649" stroke-width="3"/>
      <g id="Ellipse_2" data-name="Ellipse 2" transform="translate(937 -106)" fill="none" stroke="#f27649" stroke-width="5">
        <ellipse cx="23" cy="22.5" rx="23" ry="22.5" stroke="none"/>
        <ellipse cx="23" cy="22.5" rx="20.5" ry="20" fill="none"/>
      </g>
    </g>
  </g>
</svg>
