<svg xmlns="http://www.w3.org/2000/svg" width="32.589" height="32.589" viewBox="0 0 32.589 32.589">
  <path id="male" d="M46.069,61.189a13.707,13.707,0,0,0,10.585-22.5l5.834-5.834v2.917a1.25,1.25,0,0,0,2.5,0v-6a.625.625,0,0,0-.083-.417h0c-.167-.333-.333-.583-.667-.667h0a.906.906,0,0,0-.417-.083H57.9a1.25,1.25,0,0,0,0,2.5h2.917l-5.834,5.834A13.758,13.758,0,0,0,36.4,57.188,13.41,13.41,0,0,0,46.069,61.189Zm-8-21.67a11.236,11.236,0,0,1,7.918-3.334A10.9,10.9,0,0,1,53.9,39.518a11.294,11.294,0,0,1-7.918,19.253,10.9,10.9,0,0,1-7.918-3.334A11.371,11.371,0,0,1,38.068,39.518Z" transform="translate(-32.4 -28.6)" fill="#262526"/>
</svg>
